<?xml version="1.0" standalone="no"?><!DOCTYPE svg PUBLIC "-//W3C//DTD SVG 1.1//EN" "http://www.w3.org/Graphics/SVG/1.1/DTD/svg11.dtd"><svg t="1584944319908" class="icon" viewBox="0 0 1024 1024" version="1.1" xmlns="http://www.w3.org/2000/svg" p-id="6260" xmlns:xlink="http://www.w3.org/1999/xlink" width="200" height="200"><defs><style type="text/css"></style></defs><path d="M938.68 85.33H85.34c-23.56 0-42.67 19.1-42.67 42.67v554.67c0 23.56 19.1 42.67 42.67 42.67h252.64c-5.24 72.8-22.91 123.05-35.77 128h-67.54c-23.56 0-42.67 19.1-42.67 42.67s19.1 42.67 42.67 42.67h554.67c23.56 0 42.67-19.1 42.67-42.67s-19.1-42.67-42.67-42.67h-65.87c-12.82-5.05-30.46-55.27-35.69-128h250.89c23.56 0 42.67-19.1 42.67-42.67V128c0-23.56-19.1-42.67-42.66-42.67z m-312.49 768H399.58c15.44-41.59 21.58-90.45 23.92-128h178.78c2.34 37.55 8.47 86.41 23.91 128zM896.01 640h-768V170.67h768V640z"  p-id="6261"></path></svg>
